<?xml version="1.0" encoding="UTF-8"?>
<svg width="19px" height="19px" viewBox="0 0 19 19" version="1.1" xmlns="http://www.w3.org/2000/svg" xmlns:xlink="http://www.w3.org/1999/xlink">
    <!-- Generator: sketchtool 53.2 (72643) - https://sketchapp.com -->
    <title>ECFD7CF7-2794-47EE-9D37-0FB21F6DC331</title>
    <desc>Created with sketchtool.</desc>
    <g id="C.01.DWN---Main-menu" stroke="none" stroke-width="1" fill="none" fill-rule="evenodd">
        <g id="INTERACCION-Y-COMPORTAMIENTO" transform="translate(-1511.000000, -1223.000000)" fill="#FFFFFF">
            <path d="M1512,1223 L1515,1223 C1515.55228,1223 1516,1223.44772 1516,1224 L1516,1227 C1516,1227.55228 1515.55228,1228 1515,1228 L1512,1228 C1511.44772,1228 1511,1227.55228 1511,1227 L1511,1224 C1511,1223.44772 1511.44772,1223 1512,1223 Z M1512,1230 L1515,1230 C1515.55228,1230 1516,1230.44772 1516,1231 L1516,1234 C1516,1234.55228 1515.55228,1235 1515,1235 L1512,1235 C1511.44772,1235 1511,1234.55228 1511,1234 L1511,1231 C1511,1230.44772 1511.44772,1230 1512,1230 Z M1512,1237 L1515,1237 C1515.55228,1237 1516,1237.44772 1516,1238 L1516,1241 C1516,1241.55228 1515.55228,1242 1515,1242 L1512,1242 C1511.44772,1242 1511,1241.55228 1511,1241 L1511,1238 C1511,1237.44772 1511.44772,1237 1512,1237 Z M1519,1223 L1522,1223 C1522.55228,1223 1523,1223.44772 1523,1224 L1523,1227 C1523,1227.55228 1522.55228,1228 1522,1228 L1519,1228 C1518.44772,1228 1518,1227.55228 1518,1227 L1518,1224 C1518,1223.44772 1518.44772,1223 1519,1223 Z M1519,1230 L1522,1230 C1522.55228,1230 1523,1230.44772 1523,1231 L1523,1234 C1523,1234.55228 1522.55228,1235 1522,1235 L1519,1235 C1518.44772,1235 1518,1234.55228 1518,1234 L1518,1231 C1518,1230.44772 1518.44772,1230 1519,1230 Z M1519,1237 L1522,1237 C1522.55228,1237 1523,1237.44772 1523,1238 L1523,1241 C1523,1241.55228 1522.55228,1242 1522,1242 L1519,1242 C1518.44772,1242 1518,1241.55228 1518,1241 L1518,1238 C1518,1237.44772 1518.44772,1237 1519,1237 Z M1526,1223 L1529,1223 C1529.55228,1223 1530,1223.44772 1530,1224 L1530,1227 C1530,1227.55228 1529.55228,1228 1529,1228 L1526,1228 C1525.44772,1228 1525,1227.55228 1525,1227 L1525,1224 C1525,1223.44772 1525.44772,1223 1526,1223 Z M1526,1230 L1529,1230 C1529.55228,1230 1530,1230.44772 1530,1231 L1530,1234 C1530,1234.55228 1529.55228,1235 1529,1235 L1526,1235 C1525.44772,1235 1525,1234.55228 1525,1234 L1525,1231 C1525,1230.44772 1525.44772,1230 1526,1230 Z M1526,1237 L1529,1237 C1529.55228,1237 1530,1237.44772 1530,1238 L1530,1241 C1530,1241.55228 1529.55228,1242 1529,1242 L1526,1242 C1525.44772,1242 1525,1241.55228 1525,1241 L1525,1238 C1525,1237.44772 1525.44772,1237 1526,1237 Z" id="Icon-Apps"></path>
        </g>
    </g>
</svg>